# xmcd CD database file
# Copyright (C) 1993-1996 Ti Kan
#
# Track frame offsets:
# 182
# 11355
# 23080
# 36712
# 48767
# 60572
# 70357
# 80435
# 91560
# 104880
# 115445
# 124357
# 136447
# 147180
#
# Disc length: 2134 seconds
#
# Revision: 0
# Processed by: cddbd v1.4b41PL1 Copyright (c) Steve Scherf et al.
# Submitted via: inCDius 1.1b5
#
DISCID=c508540e
DTITLE=Hank Williams Jr. and Connie Francis - Sing Great Country Favorites
DYEAR=1900
DGENRE=
TTITLE0=Bye Bye Love
TTITLE1=Send Me The Pillow You Dream On
TTITLE2=Wolverton Mountain
TTITLE3=No Letter Today
TTITLE4=Please Help Me I'm Falling
TTITLE5=Singing The Blues
TTITLE6=Walk On By
TTITLE7=If You've Got The Money 
TTITLE8=Mule Skinner Blues
TTITLE9=Making Believe
TTITLE10=Blue Blue Day
TTITLE11=No Letter Today
TTITLE12=Wabash Cannon Ball
TTITLE13=Mule Skinner Blues
EXTD=
EXTT0=
EXTT1=
EXTT2=
EXTT3=
EXTT4=
EXTT5=
EXTT6=
EXTT7=
EXTT8=
EXTT9=
EXTT10=
EXTT11=
EXTT12=
EXTT13=
PLAYORDER=
